<svg id="visual" viewBox="0 0 900 600" width="900" height="600" xmlns="http://www.w3.org/2000/svg" xmlns:xlink="http://www.w3.org/1999/xlink" version="1.1"><g stroke-width="1" stroke-linejoin="bevel"><path d="M482 302L463 227L388 304Z" fill="#f889b6" stroke="#f889b6"></path><path d="M463 227L418 188L388 304Z" fill="#ffccde" stroke="#ffccde"></path><path d="M418 188L317 279L388 304Z" fill="#fa97be" stroke="#fa97be"></path><path d="M425 416L482 386L388 304Z" fill="#fff2f7" stroke="#fff2f7"></path><path d="M388 304L482 386L482 302Z" fill="#fa97be" stroke="#fa97be"></path><path d="M317 279L332 361L388 304Z" fill="#f889b6" stroke="#f889b6"></path><path d="M482 386L566 323L482 302Z" fill="#f67bae" stroke="#f67bae"></path><path d="M482 302L598 234L463 227Z" fill="#ffbfd6" stroke="#ffbfd6"></path><path d="M332 361L425 416L388 304Z" fill="#f67bae" stroke="#f67bae"></path><path d="M530 65L394 122L418 188Z" fill="#ffbfd6" stroke="#ffbfd6"></path><path d="M418 188L305 167L317 279Z" fill="#ffbfd6" stroke="#ffbfd6"></path><path d="M530 65L418 188L463 227Z" fill="#ffd9e6" stroke="#ffd9e6"></path><path d="M394 122L305 167L418 188Z" fill="#ffe6ee" stroke="#ffe6ee"></path><path d="M566 323L598 234L482 302Z" fill="#fca5c6" stroke="#fca5c6"></path><path d="M394 122L337 106L305 167Z" fill="#feb2ce" stroke="#feb2ce"></path><path d="M482 386L601 418L566 323Z" fill="#f67bae" stroke="#f67bae"></path><path d="M566 323L709 302L598 234Z" fill="#feb2ce" stroke="#feb2ce"></path><path d="M594 487L601 418L482 386Z" fill="#ffd9e6" stroke="#ffd9e6"></path><path d="M163 173L219 329L317 279Z" fill="#ffbfd6" stroke="#ffbfd6"></path><path d="M317 279L219 329L332 361Z" fill="#fca5c6" stroke="#fca5c6"></path><path d="M305 530L433 530L425 416Z" fill="#ffccde" stroke="#ffccde"></path><path d="M163 173L317 279L305 167Z" fill="#ffbfd6" stroke="#ffbfd6"></path><path d="M598 234L530 65L463 227Z" fill="#feb2ce" stroke="#feb2ce"></path><path d="M394 122L414 0L337 106Z" fill="#ffbfd6" stroke="#ffbfd6"></path><path d="M305 530L425 416L332 361Z" fill="#f67bae" stroke="#f67bae"></path><path d="M425 416L503 523L482 386Z" fill="#ffffff" stroke="#ffffff"></path><path d="M433 530L503 523L425 416Z" fill="#fca5c6" stroke="#fca5c6"></path><path d="M709 302L681 180L598 234Z" fill="#ffbfd6" stroke="#ffbfd6"></path><path d="M598 234L661 136L530 65Z" fill="#ffccde" stroke="#ffccde"></path><path d="M681 180L661 136L598 234Z" fill="#ffe6ee" stroke="#ffe6ee"></path><path d="M503 523L594 487L482 386Z" fill="#f889b6" stroke="#f889b6"></path><path d="M601 418L709 302L566 323Z" fill="#fa97be" stroke="#fa97be"></path><path d="M219 329L200 412L332 361Z" fill="#fca5c6" stroke="#fca5c6"></path><path d="M467 0L394 122L530 65Z" fill="#ffccde" stroke="#ffccde"></path><path d="M467 0L414 0L394 122Z" fill="#ffe6ee" stroke="#ffe6ee"></path><path d="M727 406L709 302L601 418Z" fill="#ffffff" stroke="#ffffff"></path><path d="M629 0L467 0L530 65Z" fill="#fa97be" stroke="#fa97be"></path><path d="M629 0L638 74L698 0Z" fill="#f67bae" stroke="#f67bae"></path><path d="M661 136L638 74L530 65Z" fill="#f889b6" stroke="#f889b6"></path><path d="M200 412L305 530L332 361Z" fill="#f67bae" stroke="#f67bae"></path><path d="M181 93L305 167L337 106Z" fill="#ffd9e6" stroke="#ffd9e6"></path><path d="M181 93L163 173L305 167Z" fill="#fa97be" stroke="#fa97be"></path><path d="M219 329L133 405L200 412Z" fill="#f67bae" stroke="#f67bae"></path><path d="M275 0L181 93L337 106Z" fill="#fff2f7" stroke="#fff2f7"></path><path d="M414 0L275 0L337 106Z" fill="#feb2ce" stroke="#feb2ce"></path><path d="M703 531L727 406L601 418Z" fill="#ffe6ee" stroke="#ffe6ee"></path><path d="M136 73L120 198L163 173Z" fill="#ffffff" stroke="#ffffff"></path><path d="M163 173L120 198L219 329Z" fill="#ffe6ee" stroke="#ffe6ee"></path><path d="M433 530L475 600L503 523Z" fill="#feb2ce" stroke="#feb2ce"></path><path d="M503 523L607 600L594 487Z" fill="#ffbfd6" stroke="#ffbfd6"></path><path d="M305 530L394 600L433 530Z" fill="#f889b6" stroke="#f889b6"></path><path d="M394 600L475 600L433 530Z" fill="#ffffff" stroke="#ffffff"></path><path d="M594 487L703 531L601 418Z" fill="#f889b6" stroke="#f889b6"></path><path d="M133 405L170 469L200 412Z" fill="#ffffff" stroke="#ffffff"></path><path d="M200 412L170 469L305 530Z" fill="#fff2f7" stroke="#fff2f7"></path><path d="M305 530L321 600L394 600Z" fill="#ffbfd6" stroke="#ffbfd6"></path><path d="M105 303L133 405L219 329Z" fill="#ffe6ee" stroke="#ffe6ee"></path><path d="M120 198L105 303L219 329Z" fill="#feb2ce" stroke="#feb2ce"></path><path d="M698 0L638 74L761 65Z" fill="#ffccde" stroke="#ffccde"></path><path d="M638 74L629 0L530 65Z" fill="#feb2ce" stroke="#feb2ce"></path><path d="M275 0L228 0L181 93Z" fill="#ffbfd6" stroke="#ffbfd6"></path><path d="M181 93L136 73L163 173Z" fill="#ffd9e6" stroke="#ffd9e6"></path><path d="M179 600L321 600L305 530Z" fill="#fff2f7" stroke="#fff2f7"></path><path d="M228 0L136 73L181 93Z" fill="#feb2ce" stroke="#feb2ce"></path><path d="M120 198L0 280L105 303Z" fill="#ffd9e6" stroke="#ffd9e6"></path><path d="M727 406L800 314L709 302Z" fill="#fa97be" stroke="#fa97be"></path><path d="M709 302L815 234L681 180Z" fill="#ffe6ee" stroke="#ffe6ee"></path><path d="M761 65L638 74L661 136Z" fill="#fff2f7" stroke="#fff2f7"></path><path d="M475 600L607 600L503 523Z" fill="#ffccde" stroke="#ffccde"></path><path d="M727 406L809 416L800 314Z" fill="#f67bae" stroke="#f67bae"></path><path d="M607 600L703 531L594 487Z" fill="#ffffff" stroke="#ffffff"></path><path d="M761 65L661 136L681 180Z" fill="#fa97be" stroke="#fa97be"></path><path d="M800 314L815 234L709 302Z" fill="#ffbfd6" stroke="#ffbfd6"></path><path d="M815 234L761 65L681 180Z" fill="#ffffff" stroke="#ffffff"></path><path d="M818 470L809 416L727 406Z" fill="#f889b6" stroke="#f889b6"></path><path d="M800 314L900 304L815 234Z" fill="#ffccde" stroke="#ffccde"></path><path d="M133 405L101 504L170 469Z" fill="#fa97be" stroke="#fa97be"></path><path d="M170 469L179 600L305 530Z" fill="#fca5c6" stroke="#fca5c6"></path><path d="M0 410L101 504L133 405Z" fill="#fa97be" stroke="#fa97be"></path><path d="M101 504L179 600L170 469Z" fill="#ffbfd6" stroke="#ffbfd6"></path><path d="M807 600L818 470L703 531Z" fill="#ffbfd6" stroke="#ffbfd6"></path><path d="M703 531L818 470L727 406Z" fill="#ffd9e6" stroke="#ffd9e6"></path><path d="M900 376L900 304L800 314Z" fill="#fca5c6" stroke="#fca5c6"></path><path d="M607 600L719 600L703 531Z" fill="#ffbfd6" stroke="#ffbfd6"></path><path d="M105 303L0 410L133 405Z" fill="#ffd9e6" stroke="#ffd9e6"></path><path d="M0 182L0 280L120 198Z" fill="#fa97be" stroke="#fa97be"></path><path d="M0 79L0 182L120 198Z" fill="#ffccde" stroke="#ffccde"></path><path d="M228 0L78 0L136 73Z" fill="#fff2f7" stroke="#fff2f7"></path><path d="M136 73L0 79L120 198Z" fill="#feb2ce" stroke="#feb2ce"></path><path d="M0 280L0 410L105 303Z" fill="#fca5c6" stroke="#fca5c6"></path><path d="M101 504L104 600L179 600Z" fill="#fca5c6" stroke="#fca5c6"></path><path d="M0 509L104 600L101 504Z" fill="#f67bae" stroke="#f67bae"></path><path d="M900 117L810 0L761 65Z" fill="#f67bae" stroke="#f67bae"></path><path d="M761 65L810 0L698 0Z" fill="#fa97be" stroke="#fa97be"></path><path d="M900 376L800 314L809 416Z" fill="#fff2f7" stroke="#fff2f7"></path><path d="M815 234L900 117L761 65Z" fill="#ffe6ee" stroke="#ffe6ee"></path><path d="M900 304L900 224L815 234Z" fill="#fa97be" stroke="#fa97be"></path><path d="M78 0L0 79L136 73Z" fill="#feb2ce" stroke="#feb2ce"></path><path d="M818 470L900 376L809 416Z" fill="#fff2f7" stroke="#fff2f7"></path><path d="M900 495L900 376L818 470Z" fill="#ffffff" stroke="#ffffff"></path><path d="M900 224L900 117L815 234Z" fill="#fca5c6" stroke="#fca5c6"></path><path d="M0 410L0 509L101 504Z" fill="#ffffff" stroke="#ffffff"></path><path d="M719 600L807 600L703 531Z" fill="#fff2f7" stroke="#fff2f7"></path><path d="M78 0L0 0L0 79Z" fill="#ffd9e6" stroke="#ffd9e6"></path><path d="M807 600L900 495L818 470Z" fill="#ffd9e6" stroke="#ffd9e6"></path><path d="M900 117L900 0L810 0Z" fill="#fca5c6" stroke="#fca5c6"></path><path d="M0 509L0 600L104 600Z" fill="#fff2f7" stroke="#fff2f7"></path><path d="M807 600L900 600L900 495Z" fill="#fff2f7" stroke="#fff2f7"></path></g></svg>